<svg width="76" height="54" viewBox="0 0 76 54" fill="none" xmlns="http://www.w3.org/2000/svg">
<path d="M3.05754 5.45437C5.62796 2.18901 10.5408 0.75708 20.443 0.75708H55.5562C65.2378 0.75708 70.0747 2.10296 72.6551 5.17033L73.0377 4.84846L72.6551 5.17037C73.9521 6.71187 74.6698 8.6851 75.0582 11.2093C75.4476 13.7397 75.5 16.7771 75.5 20.4214V33.5789C75.5 41.8999 74.1799 46.5305 71.2546 49.3299C68.3984 52.0634 63.9285 53.2429 55.5565 53.2429H20.443C11.8425 53.2429 6.92091 51.5483 4.11713 48.3467C1.29916 45.1288 0.5 40.2609 0.5 33.5789V20.4214C0.5 16.9593 0.500903 14.0228 0.828815 11.5291C1.15579 9.04259 1.80246 7.04882 3.05754 5.45437ZM3.05754 5.45437L2.66466 5.14511L3.05754 5.45437ZM30.1826 37.5018L30.1827 37.5019C30.6517 37.7858 31.1813 37.9287 31.7119 37.9287C32.1804 37.9287 32.6498 37.8174 33.079 37.5931L49.0238 29.2598C49.0238 29.2598 49.0238 29.2598 49.0238 29.2598C49.9991 28.7502 50.6097 27.7405 50.6085 26.6398V26.6397C50.607 25.5396 49.9937 24.5313 49.017 24.0242L33.0723 15.7447C32.1575 15.2694 31.0609 15.3061 30.1794 15.8414L30.1794 15.8415C29.298 16.3769 28.7602 17.3332 28.7602 18.364V34.9771C28.7602 36.0095 29.2995 36.9667 30.1826 37.5018Z" fill="#CC1237" stroke="#CC1237"/>
</svg>
