<svg width="76" height="54" fill="none" xmlns="http://www.w3.org/2000/svg"><path d="M3.058 5.454C5.628 2.19 10.54.757 20.443.757h35.113c9.682 0 14.519 1.346 17.1 4.413l.382-.322-.383.322c1.297 1.542 2.015 3.515 2.403 6.04.39 2.53.442 5.567.442 9.211V33.58c0 8.32-1.32 12.952-4.245 15.75-2.857 2.734-7.326 3.914-15.698 3.914H20.443c-8.6 0-13.522-1.695-16.326-4.896C1.3 45.129.5 40.26.5 33.579V20.42c0-3.462 0-6.398.329-8.892.327-2.486.973-4.48 2.229-6.075zm0 0l-.393-.309.393.31zm27.125 32.048h0a2.951 2.951 0 002.896.091l15.945-8.333s0 0 0 0a2.952 2.952 0 001.584-2.62v0a2.952 2.952 0 00-1.591-2.616l-15.945-8.28a2.952 2.952 0 00-2.893.097h0a2.951 2.951 0 00-1.419 2.523v16.613c0 1.033.54 1.99 1.423 2.525z" fill="#CC1237" stroke="#CC1237"/></svg>